<svg width="40" height="40" viewBox="0 0 40 40" fill="none" xmlns="http://www.w3.org/2000/svg">
<rect width="40" height="40" rx="4" fill="white"/>
<g clip-path="url(#clip0_2:10)">
<path fill-rule="evenodd" clip-rule="evenodd" d="M28.64 20.205C28.64 19.566 28.583 18.953 28.476 18.364H20V21.845H24.844C24.7438 22.3956 24.5329 22.9202 24.2242 23.387C23.9155 23.8538 23.5154 24.2532 23.048 24.561V26.82H25.956C27.658 25.253 28.64 22.945 28.64 20.205Z" fill="#4285F4"/>
<path fill-rule="evenodd" clip-rule="evenodd" d="M20 29C22.43 29 24.467 28.194 25.956 26.82L23.048 24.561C22.242 25.101 21.211 25.421 20 25.421C17.656 25.421 15.672 23.837 14.964 21.71H11.957V24.042C12.706 25.5329 13.8549 26.7862 15.2753 27.6618C16.6956 28.5373 18.3315 29.0007 20 29V29Z" fill="#34A853"/>
<path fill-rule="evenodd" clip-rule="evenodd" d="M14.964 21.71C14.7787 21.1589 14.6835 20.5815 14.682 20C14.682 19.407 14.784 18.83 14.964 18.29V15.958H11.957C11.3271 17.2122 10.9993 18.5965 11 20C11 21.452 11.348 22.827 11.957 24.042L14.964 21.71Z" fill="#FBBC05"/>
<path fill-rule="evenodd" clip-rule="evenodd" d="M20 14.58C21.321 14.58 22.508 15.034 23.44 15.925L26.022 13.345C24.463 11.891 22.426 11 20 11C18.3315 10.9993 16.6956 11.4627 15.2753 12.3382C13.8549 13.2138 12.706 14.4671 11.957 15.958L14.964 18.29C15.672 16.163 17.656 14.58 20 14.58Z" fill="#EA4335"/>
</g>
<defs>
<clipPath id="clip0_2:10">
<rect width="18" height="18" fill="white" transform="translate(11 11)"/>
</clipPath>
</defs>
</svg>
